<svg width="21" height="20" viewBox="0 0 21 20" fill="none" xmlns="http://www.w3.org/2000/svg">
<g clip-path="url(#clip0_557_14000)">
<path d="M10.5014 4.16667C11.8487 4.16667 13.0858 4.62794 14.0733 5.39505L17.1043 2.50341C15.3421 0.949961 13.0353 0 10.5014 0C6.66174 0 3.33197 2.1666 1.65625 5.34154L5.02661 8.00232C5.84306 5.76614 7.98265 4.16667 10.5014 4.16667Z" fill="#F44336"/>
<path d="M20.4134 11.2509C20.4655 10.8412 20.5 10.4232 20.5 9.99935C20.5 9.28447 20.4219 8.58837 20.2794 7.91602H10.5V12.0827H15.9052C15.4679 13.2192 14.6894 14.1808 13.6983 14.8489L17.0812 17.5196C18.8745 15.9455 20.1016 13.7413 20.4134 11.2509Z" fill="#2196F3"/>
<path d="M4.66667 10.0003C4.66667 9.29738 4.79738 8.62661 5.0252 8.00257L1.65484 5.3418C0.920278 6.7336 0.5 8.31706 0.5 10.0003C0.5 11.6646 0.912547 13.2305 1.63185 14.6111L5.00648 11.9469C4.79036 11.3373 4.66667 10.6839 4.66667 10.0003Z" fill="#FFC107"/>
<path d="M10.501 15.834C7.96302 15.834 5.80965 14.2102 5.00745 11.9473L1.63281 14.6114C3.30034 17.8119 6.64248 20.0007 10.501 20.0007C13.0241 20.0007 15.3249 19.0633 17.0822 17.5209L13.6993 14.8502C12.7853 15.4664 11.6913 15.834 10.501 15.834Z" fill="#00B060"/>
<path opacity="0.1" d="M10.4994 19.7915C7.55638 19.7915 4.91004 18.5772 3.03906 16.6426C4.87058 18.698 7.52983 19.9998 10.4994 19.9998C13.4416 19.9998 16.0788 18.7237 17.9062 16.7005C16.0408 18.6037 13.4145 19.7915 10.4994 19.7915Z" fill="#222222"/>
<path opacity="0.1" d="M10.5 11.875V12.0833H15.9052L15.9896 11.875H10.5Z" fill="#222222"/>
<path d="M20.4961 10.1219C20.4968 10.0809 20.5008 10.0405 20.5008 9.99938C20.5008 9.98773 20.4989 9.97649 20.4989 9.96484C20.4983 10.0173 20.4957 10.0692 20.4961 10.1219Z" fill="#E6E6E6"/>
<path opacity="0.2" d="M10.5 7.91602V8.12435H20.3213C20.3082 8.05558 20.2939 7.98427 20.2794 7.91602H10.5Z" fill="white"/>
<path d="M20.2794 7.91667H10.5V12.0833H15.9052C15.0646 14.268 12.981 15.8333 10.5 15.8333C7.27836 15.8333 4.66667 13.2216 4.66667 10C4.66667 6.77831 7.27836 4.16667 10.5 4.16667C11.6682 4.16667 12.7449 4.52555 13.6571 5.11724C13.7967 5.20798 13.9408 5.29317 14.0719 5.39505L17.1029 2.50341L17.0345 2.45082C15.2808 0.930888 13.0029 0 10.5 0C4.97713 0 0.5 4.47713 0.5 10C0.5 15.5228 4.97713 20 10.5 20C15.5981 20 19.7962 16.1823 20.4134 11.2515C20.4655 10.8418 20.5 10.4239 20.5 10C20.5 9.28513 20.4219 8.58902 20.2794 7.91667Z" fill="url(#paint0_linear_557_14000)"/>
<path opacity="0.1" d="M13.6584 4.9094C12.7462 4.31772 11.6695 3.95883 10.5013 3.95883C7.27966 3.95883 4.66797 6.57048 4.66797 9.79217C4.66797 9.82731 4.66844 9.85478 4.66905 9.88982C4.72526 6.71676 7.31481 4.16717 10.5013 4.16717C11.6695 4.16717 12.7462 4.52605 13.6584 5.11774C13.798 5.20848 13.9421 5.29367 14.0732 5.39555L17.1042 2.50391L14.0732 5.18722C13.9421 5.08534 13.798 5.00014 13.6584 4.9094Z" fill="#222222"/>
<path opacity="0.2" d="M10.5 0.208333C12.9792 0.208333 15.2358 1.12366 16.9827 2.618L17.1029 2.50341L17.0112 2.42356C15.2575 0.903633 13.0029 0 10.5 0C4.97713 0 0.5 4.47713 0.5 10C0.5 10.0351 0.504883 10.0691 0.505239 10.1042C0.561696 4.62987 5.01228 0.208333 10.5 0.208333Z" fill="white"/>
</g>
<defs>
<linearGradient id="paint0_linear_557_14000" x1="0.5" y1="10" x2="20.5" y2="10" gradientUnits="userSpaceOnUse">
<stop stop-color="white" stop-opacity="0.2"/>
<stop offset="1" stop-color="white" stop-opacity="0"/>
</linearGradient>
<clipPath id="clip0_557_14000">
<rect width="20" height="20" fill="white" transform="translate(0.5)"/>
</clipPath>
</defs>
</svg>
